PathFileType	4	(X/Y/Z)	C:/Users/opensim2020/Desktop/walking_exp_matlab/subject02_walking13_straight_04.trc	
DataRate	CameraRate	NumFrames	NumMarkers	Units	OrigDataRate	OrigDataStartFrame	OrigNumFrames	
100.00	100.00	5	41	mm	100.00	1750	118	
Frame#	Time	LFHD			RFHD			LBHD			RBHD			C7			T10			CLAV			STRN			RBAK			LSHO			LUPA			LELB			LFRM			LWRA			LWRB			LFIN			RSHO			RUPA			RELB			RFRM			RWRA			RWRB			RFIN			LASI			RASI			LPSI			RPSI			LTHI			LKNE			LTIB			LANK			LHEE			LTOE			RTHI			RKNE			RTIB			RANK			RHEE			RTOE			*39			*40			
		X1	Y1	Z1	X2	Y2	Z2	X3	Y3	Z3	X4	Y4	Z4	X5	Y5	Z5	X6	Y6	Z6	X7	Y7	Z7	X8	Y8	Z8	X9	Y9	Z9	X10	Y10	Z10	X11	Y11	Z11	X12	Y12	Z12	X13	Y13	Z13	X14	Y14	Z14	X15	Y15	Z15	X16	Y16	Z16	X17	Y17	Z17	X18	Y18	Z18	X19	Y19	Z19	X20	Y20	Z20	X21	Y21	Z21	X22	Y22	Z22	X23	Y23	Z23	X24	Y24	Z24	X25	Y25	Z25	X26	Y26	Z26	X27	Y27	Z27	X28	Y28	Z28	X29	Y29	Z29	X30	Y30	Z30	X31	Y31	Z31	X32	Y32	Z32	X33	Y33	Z33	X34	Y34	Z34	X35	Y35	Z35	X36	Y36	Z36	X37	Y37	Z37	X38	Y38	Z38	X39	Y39	Z39	X40	Y40	Z40	X41	Y41	Z41	

15	0.140	1422.80896	645.14966	1710.13281	1282.46680	662.64020	1681.14343	1450.30640	779.48315	1647.18420	1312.51526	808.73724	1618.49438	1376.55432	850.29114	1494.70154	1363.33911	885.82361	1214.64636	1401.63123	706.77588	1433.61609	1394.72253	644.97845	1267.10596	1305.75964	893.42120	1314.82886	1560.81372	801.08801	1465.87708	1623.74609	870.99103	1271.56665	1612.37488	913.69373	1139.30786	1619.45923	962.09406	1018.75433	1571.78503	982.07129	883.09424	1617.94373	1009.26520	902.91382	1595.76587	1047.21594	844.87463	1198.10559	761.53546	1469.13940	1107.49915	764.71930	1280.04285	1076.77759	716.87677	1140.33081	1078.97742	621.92828	1062.15234	1117.08447	509.43723	1002.75226	1087.96716	537.53052	963.37061	1087.95020	467.63895	951.55829	1519.53430	648.74365	973.73499	1272.71179	649.29590	930.96045	1430.36499	861.33295	1013.37726	1312.59033	859.16217	999.11401	1591.51575	638.36487	681.06195	1563.79541	602.07507	484.94379	1582.73657	633.76294	294.75275	1558.38831	624.43835	73.78682	1508.49719	661.34930	44.95698	1568.76843	468.04037	35.06827	1200.15369	793.76782	632.33978	1218.92090	841.28912	435.62003	1211.51672	1001.02936	339.16318	1240.33813	1151.93323	221.96965	1297.26733	1207.63989	226.03735	1258.65503	1133.45129	57.42193	1338.18701	750.87952	1777.27295	-3357.49072	2845.89648	1034.40552 
16	0.150	1426.23242	632.24280	1712.26270	1286.19238	649.89691	1684.03223	1453.67212	766.53351	1649.05493	1315.81177	795.85284	1620.89270	1379.81494	837.34778	1496.58911	1366.83411	872.91809	1216.92065	1404.41187	693.52008	1435.80701	1397.08801	631.98950	1269.13696	1308.95215	880.66394	1317.47693	1564.04822	787.10742	1468.11719	1628.75659	853.53302	1272.75940	1618.94348	894.92853	1140.17749	1628.00684	941.70081	1019.47656	1580.74915	960.12280	882.61853	1627.20764	986.69635	902.55334	1606.40271	1024.05432	843.71808	1201.01245	748.70215	1471.22424	1111.11816	753.18536	1281.79492	1082.10742	707.52960	1141.25720	1083.09619	614.49988	1060.88379	1120.10925	503.07910	999.24384	1091.65125	532.52954	960.34155	1090.37927	462.87689	947.35443	1522.90161	635.59943	976.82916	1277.49915	636.07166	932.50909	1433.52612	848.25818	1014.51111	1315.85815	846.34113	1000.70551	1593.33142	625.93628	682.31879	1566.03101	597.28479	483.92801	1581.32898	633.51556	294.03506	1558.33154	624.66675	73.54102	1508.48022	661.47620	44.92588	1568.71265	468.07166	34.99101	1204.17249	771.80011	630.13080	1221.85132	813.84290	433.76105	1214.03699	974.52850	340.88046	1245.29504	1128.72559	229.73828	1303.93335	1182.99402	235.96719	1257.95239	1116.81445	64.70536	1342.18591	738.27710	1779.62842	-3357.40918	2845.84082	1034.32971 
17	0.160	1429.84949	619.52472	1714.74316	1289.55261	637.09979	1686.96118	1457.05139	753.64215	1651.23889	1318.96814	782.90771	1623.50745	1383.14795	824.26172	1499.17102	1370.05298	860.02081	1219.29456	1406.86865	680.46558	1438.31873	1399.13013	619.11639	1271.32715	1311.45898	867.83545	1320.29346	1567.27295	773.18964	1470.79529	1633.33362	835.77710	1274.20569	1625.49646	875.61993	1141.30432	1635.35352	919.81268	1019.55426	1590.10388	936.68018	882.48486	1636.64307	963.11316	902.42664	1617.50061	999.18842	842.39746	1204.11182	736.44489	1473.73096	1115.20337	741.73688	1283.68237	1086.68628	698.64948	1142.62219	1087.01831	607.56268	1059.72107	1123.13098	497.12393	995.36926	1094.96057	528.18481	956.97119	1092.52637	458.70322	942.52594	1526.25830	623.15308	980.11743	1281.56274	623.57318	934.57086	1436.83716	835.67407	1016.17065	1319.47681	834.21393	1002.92847	1595.23743	614.69153	684.20782	1568.42090	594.33801	483.13818	1580.31140	634.38336	293.88318	1558.21118	624.76910	73.48311	1508.68542	661.53760	45.09106	1568.94788	468.37149	35.11947	1208.24304	749.64398	629.26147	1224.99487	786.00616	432.73907	1217.33472	947.26337	342.89160	1251.22949	1104.55627	237.09358	1312.46716	1158.11865	242.97995	1256.30554	1096.62988	72.59206	1345.89429	725.53259	1782.23096	-3357.38306	2845.82544	1034.26978 
18	0.170	1433.12915	606.64233	1717.06531	1292.56030	624.02734	1689.99646	1459.73474	740.45892	1653.34595	1321.88379	769.89459	1626.35168	1386.40210	811.08801	1502.14050	1373.36023	847.45581	1222.11304	1409.09155	667.43298	1441.03638	1400.96118	606.36597	1273.74023	1314.38672	855.82330	1323.66528	1569.91797	758.94586	1473.59937	1638.32166	818.06299	1276.37292	1632.20215	855.98486	1142.78613	1643.75000	897.94440	1020.46887	1599.66553	912.14246	882.58441	1646.19238	938.60474	902.49188	1629.21130	972.80273	841.26971	1206.75549	724.34009	1476.38940	1118.39990	731.28223	1285.89575	1091.54443	689.61871	1144.15369	1091.13989	600.55341	1058.76392	1126.06812	491.77463	991.34796	1098.21387	524.28400	953.72815	1095.02124	455.26358	937.46216	1528.89575	610.84277	983.00043	1284.30200	611.75916	936.83368	1440.29846	823.45471	1018.57202	1323.33545	822.70526	1005.74030	1597.11438	605.01575	685.80103	1570.40210	591.81354	483.21262	1580.32239	635.26648	294.26007	1558.18542	625.02502	73.52512	1508.65430	661.68555	45.01421	1569.05640	468.61447	35.24407	1211.20044	728.57056	629.94885	1228.36487	758.34534	433.12552	1222.23840	919.34296	345.31024	1258.11401	1079.56030	243.87709	1321.24854	1132.45044	247.80203	1254.55591	1072.01819	80.51305	1349.51575	712.62775	1784.98535	-3360.37939	2845.34766	1034.20300 
19	0.180	1436.15393	593.58813	1719.61780	1295.65930	611.12732	1693.27710	1462.69128	727.48456	1655.84509	1324.59021	756.86194	1629.34729	1389.45886	797.94812	1505.22058	1376.61658	835.06183	1225.21436	1411.08130	654.48346	1443.89746	1402.40833	593.51550	1276.21228	1317.12488	843.61993	1327.01685	1572.78284	744.71320	1476.82593	1642.80969	799.94995	1278.63635	1638.86035	835.90710	1144.51794	1652.28931	875.57312	1021.73035	1609.32764	886.63898	882.90607	1655.75122	913.20233	902.90894	1640.80042	944.71643	839.99738	1209.32788	712.55725	1479.15784	1121.52332	720.31726	1288.27124	1096.27783	680.57825	1145.77209	1095.14612	594.46643	1057.69812	1128.95459	486.84607	987.16229	1101.33716	520.79767	950.70447	1097.87549	452.43597	932.14990	1531.17078	598.66785	985.52515	1286.22253	599.68744	940.14709	1443.84973	811.39075	1021.56592	1327.42212	811.68048	1008.93597	1598.91797	597.06073	686.75439	1572.21716	589.08917	483.98322	1581.28601	635.37030	295.18542	1558.41577	625.43475	73.75407	1508.42798	661.85260	44.74132	1569.13318	468.77322	35.20691	1214.52161	707.48303	631.56256	1231.97363	730.59778	434.78510	1227.57849	892.00653	348.56818	1265.36377	1053.42798	249.81281	1329.43689	1106.00476	251.14218	1253.67139	1044.44556	86.91743	1353.03381	699.69843	1787.86621	-3360.32886	2845.27612	1034.17041 
